<svg width="16" height="13" viewBox="0 0 16 13" fill="none" xmlns="http://www.w3.org/2000/svg">
<path d="M5.72327 6.13421L7.16993 6.13454C8.8268 6.13454 10.1699 7.47768 10.1699 9.13454L5.50259 9.13394L5.50325 9.80121L10.8366 9.80068V9.13454C10.8366 8.41288 10.6245 7.73248 10.2459 7.13401L12.1699 7.13454C13.4981 7.13454 14.6449 7.91134 15.1807 9.03548C13.6041 11.1159 11.0512 12.4679 8.16993 12.4679C6.32907 12.4679 4.76958 12.0741 3.50298 11.3847L3.50395 5.18188C4.33431 5.30074 5.09415 5.63828 5.72327 6.13421ZM2.16992 4.46785C2.51182 4.46785 2.7936 4.72521 2.83211 5.05677L2.83659 5.13394V11.1345C2.83659 11.5027 2.53812 11.8012 2.16992 11.8012H0.836589C0.468402 11.8012 0.169922 11.5027 0.169922 11.1345V5.13454C0.169922 4.76632 0.468402 4.46785 0.836589 4.46785H2.16992ZM8.60087 0.851436L8.8364 1.08728L9.07227 0.851436C9.72313 0.200563 10.7785 0.200563 11.4293 0.851436C12.0802 1.50231 12.0802 2.55758 11.4293 3.20846L8.8366 5.80121L6.24387 3.20846C5.59299 2.55758 5.59299 1.50231 6.24387 0.851436C6.89473 0.200563 7.95 0.200563 8.60087 0.851436Z" fill="#006C2C"/>
</svg>
